Facade-BoldItalic.ufo
<glyph name="ampersand" format="2">
  <advance width="800"/>
  <unicode hex="0026"/>
  <outline>
    <contour>
      <point x="315" y="-18" type="curve" smooth="yes"/>
      <point x="386" y="-18"/>
      <point x="460" y="6"/>
      <point x="533" y="48" type="curve"/>
      <point x="480" y="77" type="line"/>
      <point x="513" y="0" type="line"/>
      <point x="700" y="0" type="line"/>
      <point x="646" y="120" type="line"/>
      <point x="686" y="149"/>
      <point x="726" y="187"/>
      <point x="756" y="231" type="curve"/>
      <point x="685" y="393" type="line"/>
      <point x="668" y="340"/>
      <point x="635" y="288"/>
      <point x="592" y="246" type="curve"/>
      <point x="487" y="485" type="line"/>
      <point x="507" y="492" type="line" smooth="yes"/>
      <point x="636" y="537"/>
      <point x="713" y="619"/>
      <point x="713" y="717" type="curve" smooth="yes"/>
      <point x="713" y="829"/>
      <point x="624" y="918"/>
      <point x="493" y="918" type="curve" smooth="yes"/>
      <point x="357" y="918"/>
      <point x="243" y="807"/>
      <point x="243" y="680" type="curve" smooth="yes"/>
      <point x="243" y="646"/>
      <point x="253" y="617"/>
      <point x="272" y="559" type="curve" smooth="yes"/>
      <point x="274" y="553" type="line"/>
      <point x="126" y="492"/>
      <point x="40" y="377"/>
      <point x="40" y="247" type="curve" smooth="yes"/>
      <point x="40" y="91"/>
      <point x="158" y="-18"/>
    </contour>
    <contour>
      <point x="353" y="128" type="curve" smooth="yes"/>
      <point x="273" y="128"/>
      <point x="213" y="186"/>
      <point x="213" y="269" type="curve" smooth="yes"/>
      <point x="213" y="336"/>
      <point x="256" y="398"/>
      <point x="326" y="429" type="curve"/>
      <point x="446" y="155" type="line"/>
      <point x="424" y="139"/>
      <point x="388" y="128"/>
    </contour>
    <contour>
      <point x="432" y="603" type="line"/>
      <point x="418" y="637" type="line" smooth="yes"/>
      <point x="404" y="671"/>
      <point x="401" y="687"/>
      <point x="401" y="700" type="curve" smooth="yes"/>
      <point x="401" y="748"/>
      <point x="440" y="786"/>
      <point x="487" y="786" type="curve" smooth="yes"/>
      <point x="526" y="786"/>
      <point x="554" y="759"/>
      <point x="554" y="719" type="curve" smooth="yes"/>
      <point x="554" y="677"/>
      <point x="524" y="641"/>
      <point x="466" y="617" type="curve" smooth="yes"/>
    </contour>
  </outline>
</glyph>
<glyph name="quotesingle" format="2">
  <advance width="290"/>
  <unicode hex="0027"/>
  <outline>
    <contour>
      <point x="157" y="540" type="line"/>
      <point x="241" y="540" type="line"/>
      <point x="391" y="900" type="line"/>
      <point x="187" y="900" type="line"/>
    </contour>
  </outline>
</glyph>
<glyph name="period" format="2">
  <advance width="300"/>
  <unicode hex="002E"/>
  <outline>
    <contour>
      <point x="84" y="-20" type="curve" smooth="yes"/>
      <point x="148" y="-20"/>
      <point x="205" y="37"/>
      <point x="205" y="101" type="curve" smooth="yes"/>
      <point x="205" y="155"/>
      <point x="165" y="196"/>
      <point x="110" y="196" type="curve" smooth="yes"/>
      <point x="46" y="196"/>
      <point x="-11" y="139"/>
      <point x="-11" y="76" type="curve" smooth="yes"/>
      <point x="-11" y="20"/>
      <point x="32" y="-20"/>
    </contour>
  </outline>
</glyph>
<glyph name="one" format="2">
  <advance width="750"/>
  <unicode hex="0031"/>
  <outline>
    <contour>
      <point x="265" y="0" type="line"/>
      <point x="435" y="0" type="line"/>
      <point x="668" y="932" type="line"/>
      <point x="263" y="752" type="line"/>
      <point x="217" y="570" type="line"/>
      <point x="495" y="694" type="line"/>
      <point x="456" y="761" type="line"/>
    </contour>
    <contour>
      <point x="75" y="0" type="line"/>
      <point x="585" y="0" type="line"/>
      <point x="621" y="144" type="line"/>
      <point x="111" y="144" type="line"/>
    </contour>
  </outline>
</glyph>
<glyph name="five" format="2">
  <advance width="750"/>
  <unicode hex="0035"/>
  <outline>
    <contour>
      <point x="284" y="-20" type="curve" smooth="yes"/>
      <point x="480" y="-20"/>
      <point x="655" y="150"/>
      <point x="655" y="340" type="curve" smooth="yes"/>
      <point x="655" y="505"/>
      <point x="522" y="606"/>
      <point x="391" y="606" type="curve" smooth="yes"/>
      <point x="388" y="606"/>
      <point x="383" y="606"/>
      <point x="377" y="605" type="curve"/>
      <point x="411" y="744" type="line"/>
      <point x="703" y="744" type="line"/>
      <point x="741" y="900" type="line"/>
      <point x="303" y="900" type="line"/>
      <point x="183" y="413" type="line"/>
      <point x="225" y="443"/>
      <point x="275" y="462"/>
      <point x="326" y="462" type="curve" smooth="yes"/>
      <point x="416" y="462"/>
      <point x="483" y="406"/>
      <point x="483" y="326" type="curve" smooth="yes"/>
      <point x="483" y="231"/>
      <point x="398" y="142"/>
      <point x="300" y="142" type="curve" smooth="yes"/>
      <point x="205" y="142"/>
      <point x="142" y="225"/>
      <point x="142" y="318" type="curve"/>
      <point x="10" y="152" type="line"/>
      <point x="58" y="40"/>
      <point x="169" y="-20"/>
    </contour>
  </outline>
</glyph>
<glyph name="seven" format="2">
  <advance width="750"/>
  <unicode hex="0037"/>
  <outline>
    <contour>
      <point x="10" y="0" type="line"/>
      <point x="218" y="0" type="line"/>
      <point x="866" y="900" type="line"/>
      <point x="213" y="900" type="line"/>
      <point x="173" y="738" type="line"/>
      <point x="656" y="738" type="line"/>
      <point x="609" y="825" type="line"/>
    </contour>
  </outline>
</glyph>
<glyph name="at" format="2">
  <advance width="1260"/>
  <unicode hex="0040"/>
  <outline>
    <contour>
      <point x="603" y="-192" type="curve" smooth="yes"/>
      <point x="705" y="-192"/>
      <point x="802" y="-168"/>
      <point x="883" y="-121" type="curve"/>
      <point x="883" y="10" type="line"/>
      <point x="807" y="-37"/>
      <point x="720" y="-62"/>
      <point x="630" y="-62" type="curve" smooth="yes"/>
      <point x="397" y="-62"/>
      <point x="231" y="92"/>
      <point x="231" y="308" type="curve" smooth="yes"/>
      <point x="231" y="566"/>
      <point x="451" y="780"/>
      <point x="714" y="780" type="curve" smooth="yes"/>
      <point x="929" y="780"/>
      <point x="1083" y="642"/>
      <point x="1083" y="446" type="curve" smooth="yes"/>
      <point x="1083" y="301"/>
      <point x="1008" y="160"/>
      <point x="933" y="160" type="curve" smooth="yes"/>
      <point x="894" y="160"/>
      <point x="874" y="195"/>
      <point x="886" y="242" type="curve" smooth="yes"/>
      <point x="981" y="630" type="line"/>
      <point x="844" y="630" type="line"/>
      <point x="819" y="523" type="line"/>
      <point x="853" y="550" type="line"/>
      <point x="808" y="610"/>
      <point x="734" y="646"/>
      <point x="652" y="646" type="curve" smooth="yes"/>
      <point x="486" y="646"/>
      <point x="338" y="496"/>
      <point x="338" y="327" type="curve" smooth="yes"/>
      <point x="338" y="186"/>
      <point x="442" y="83"/>
      <point x="583" y="83" type="curve" smooth="yes"/>
      <point x="655" y="83"/>
      <point x="727" y="111"/>
      <point x="784" y="161" type="curve"/>
      <point x="750" y="174" type="line"/>
      <point x="756" y="99"/>
      <point x="823" y="46"/>
      <point x="913" y="46" type="curve" smooth="yes"/>
      <point x="1081" y="46"/>
      <point x="1229" y="238"/>
      <point x="1229" y="456" type="curve" smooth="yes"/>
      <point x="1229" y="717"/>
      <point x="1014" y="912"/>
      <point x="727" y="912" type="curve" smooth="yes"/>
      <point x="385" y="912"/>
      <point x="85" y="625"/>
      <point x="85" y="298" type="curve" smooth="yes"/>
      <point x="85" y="17"/>
      <point x="306" y="-192"/>
    </contour>
    <contour>
      <point x="625" y="217" type="curve" smooth="yes"/>
      <point x="552" y="217"/>
      <point x="498" y="270"/>
      <point x="498" y="342" type="curve" smooth="yes"/>
      <point x="498" y="430"/>
      <point x="574" y="506"/>
      <point x="660" y="506" type="curve" smooth="yes"/>
      <point x="734" y="506"/>
      <point x="787" y="453"/>
      <point x="787" y="381" type="curve" smooth="yes"/>
      <point x="787" y="293"/>
      <point x="711" y="217"/>
    </contour>
  </outline>
</glyph>
<glyph name="D" format="2">
  <advance width="940"/>
  <unicode hex="0044"/>
  <anchor x="332" y="0" name="bottom"/>
  <anchor x="222" y="480" name="center"/>
  <anchor x="557" y="914" name="top"/>
  <outline>
    <contour>
      <point x="21" y="0" type="line"/>
      <point x="393" y="0" type="line" smooth="yes"/>
      <point x="672" y="0"/>
      <point x="922" y="237"/>
      <point x="922" y="501" type="curve" smooth="yes"/>
      <point x="922" y="726"/>
      <point x="739" y="900"/>
      <point x="501" y="900" type="curve" smooth="yes"/>
      <point x="246" y="900" type="line"/>
    </contour>
    <contour>
      <point x="235" y="162" type="line"/>
      <point x="380" y="738" type="line"/>
      <point x="470" y="738" type="line" smooth="yes"/>
      <point x="623" y="738"/>
      <point x="732" y="634"/>
      <point x="732" y="489" type="curve" smooth="yes"/>
      <point x="732" y="315"/>
      <point x="577" y="162"/>
      <point x="401" y="162" type="curve" smooth="yes"/>
    </contour>
  </outline>
</glyph>
<glyph name="I" format="2">
  <advance width="390"/>
  <unicode hex="0049"/>
  <anchor x="120" y="0" name="bottom"/>
  <anchor x="120" y="0" name="ogonek"/>
  <anchor x="345" y="900" name="top"/>
  <anchor x="150" y="900" name="topleft"/>
  <outline>
    <contour>
      <point x="27" y="0" type="line"/>
      <point x="213" y="0" type="line"/>
      <point x="438" y="900" type="line"/>
      <point x="252" y="900" type="line"/>
    </contour>
  </outline>
</glyph>
<glyph name="R" format="2">
  <advance width="800"/>
  <unicode hex="0052"/>
  <anchor x="366" y="0" name="bottom"/>
  <anchor x="474" y="900" name="top"/>
  <outline>
    <contour>
      <point x="26" y="0" type="line"/>
      <point x="200" y="0" type="line"/>
      <point x="423" y="900" type="line"/>
      <point x="249" y="900" type="line"/>
    </contour>
    <contour>
      <point x="197" y="342" type="line"/>
      <point x="438" y="342" type="line" smooth="yes"/>
      <point x="611" y="342"/>
      <point x="766" y="489"/>
      <point x="766" y="653" type="curve" smooth="yes"/>
      <point x="766" y="793"/>
      <point x="652" y="900"/>
      <point x="505" y="900" type="curve" smooth="yes"/>
      <point x="336" y="900" type="line"/>
      <point x="296" y="738" type="line"/>
      <point x="467" y="738" type="line" smooth="yes"/>
      <point x="542" y="738"/>
      <point x="591" y="696"/>
      <point x="591" y="632" type="curve" smooth="yes"/>
      <point x="591" y="555"/>
      <point x="522" y="492"/>
      <point x="438" y="492" type="curve" smooth="yes"/>
      <point x="234" y="492" type="line"/>
    </contour>
    <contour>
      <point x="546" y="0" type="line"/>
      <point x="731" y="0" type="line"/>
      <point x="578" y="432" type="line"/>
      <point x="401" y="432" type="line"/>
    </contour>
  </outline>
</glyph>
<glyph name="S" format="2">
  <advance width="660"/>
  <unicode hex="0053"/>
  <anchor x="243" y="0" name="bottom"/>
  <anchor x="486" y="900" name="top"/>
  <outline>
    <contour>
      <point x="293" y="-20" type="curve" smooth="yes"/>
      <point x="466" y="-20"/>
      <point x="609" y="117"/>
      <point x="609" y="283" type="curve" smooth="yes"/>
      <point x="609" y="370"/>
      <point x="570" y="436"/>
      <point x="480" y="503" type="curve" smooth="yes"/>
      <point x="387" y="573" type="line" smooth="yes"/>
      <point x="339" y="609"/>
      <point x="322" y="633"/>
      <point x="322" y="665" type="curve" smooth="yes"/>
      <point x="322" y="720"/>
      <point x="368" y="760"/>
      <point x="430" y="760" type="curve" smooth="yes"/>
      <point x="504" y="760"/>
      <point x="581" y="704"/>
      <point x="622" y="622" type="curve"/>
      <point x="715" y="809" type="line"/>
      <point x="651" y="877"/>
      <point x="547" y="920"/>
      <point x="447" y="920" type="curve" smooth="yes"/>
      <point x="278" y="920"/>
      <point x="147" y="798"/>
      <point x="147" y="641" type="curve" smooth="yes"/>
      <point x="147" y="562"/>
      <point x="180" y="508"/>
      <point x="275" y="432" type="curve" smooth="yes"/>
      <point x="367" y="359" type="line" smooth="yes"/>
      <point x="414" y="322"/>
      <point x="434" y="291"/>
      <point x="434" y="253" type="curve" smooth="yes"/>
      <point x="434" y="191"/>
      <point x="378" y="142"/>
      <point x="308" y="142" type="curve" smooth="yes"/>
      <point x="222" y="142"/>
      <point x="131" y="217"/>
      <point x="105" y="309" type="curve"/>
      <point x="8" y="118" type="line"/>
      <point x="63" y="37"/>
      <point x="181" y="-20"/>
    </contour>
  </outline>
</glyph>
<glyph name="V" format="2">
  <advance width="770"/>
  <unicode hex="0056"/>
  <outline>
    <contour>
      <point x="303" y="-30" type="line"/>
      <point x="305" y="-30" type="line"/>
      <point x="914" y="900" type="line"/>
      <point x="723" y="900" type="line"/>
      <point x="483" y="530" type="line" smooth="yes"/>
      <point x="441" y="465"/>
      <point x="412" y="421"/>
      <point x="374" y="337" type="curve"/>
      <point x="408" y="337" type="line"/>
      <point x="410" y="422"/>
      <point x="399" y="471"/>
      <point x="390" y="530" type="curve" smooth="yes"/>
      <point x="336" y="900" type="line"/>
      <point x="156" y="900" type="line"/>
    </contour>
  </outline>
</glyph>
<glyph name="X" format="2">
  <advance width="870"/>
  <unicode hex="0058"/>
  <outline>
    <contour>
      <point x="-69" y="0" type="line"/>
      <point x="146" y="0" type="line"/>
      <point x="372" y="270" type="line" smooth="yes"/>
      <point x="413" y="319"/>
      <point x="452" y="371"/>
      <point x="507" y="443" type="curve"/>
      <point x="451" y="440" type="line"/>
      <point x="474" y="369"/>
      <point x="487" y="317"/>
      <point x="505" y="268" type="curve" smooth="yes"/>
      <point x="602" y="0" type="line"/>
      <point x="795" y="0" type="line"/>
      <point x="609" y="513" type="line"/>
      <point x="939" y="900" type="line"/>
      <point x="731" y="900" type="line"/>
      <point x="620" y="774" type="line" smooth="yes"/>
      <point x="577" y="725"/>
      <point x="535" y="673"/>
      <point x="475" y="584" type="curve"/>
      <point x="513" y="584" type="line"/>
      <point x="496" y="673"/>
      <point x="479" y="724"/>
      <point x="461" y="773" type="curve" smooth="yes"/>
      <point x="415" y="900" type="line"/>
      <point x="225" y="900" type="line"/>
      <point x="368" y="523" type="line"/>
    </contour>
  </outline>
</glyph>
<glyph name="a" format="2">
  <advance width="740"/>
  <unicode hex="0061"/>
  <anchor x="275" y="0" name="bottom"/>
  <anchor x="521" y="0" name="ogonek"/>
  <anchor x="433" y="600" name="top"/>
  <outline>
    <contour>
      <point x="288" y="-14" type="curve" smooth="yes"/>
      <point x="385" y="-14"/>
      <point x="464" y="39"/>
      <point x="518" y="110" type="curve"/>
      <point x="486" y="150" type="line"/>
      <point x="449" y="0" type="line"/>
      <point x="599" y="0" type="line"/>
      <point x="748" y="600" type="line"/>
      <point x="598" y="600" type="line"/>
      <point x="560" y="450" type="line"/>
      <point x="619" y="484" type="line"/>
      <point x="576" y="564"/>
      <point x="487" y="614"/>
      <point x="387" y="614" type="curve" smooth="yes"/>
      <point x="206" y="614"/>
      <point x="36" y="448"/>
      <point x="36" y="256" type="curve" smooth="yes"/>
      <point x="36" y="103"/>
      <point x="145" y="-14"/>
    </contour>
    <contour>
      <point x="336" y="139" type="curve" smooth="yes"/>
      <point x="255" y="139"/>
      <point x="198" y="201"/>
      <point x="198" y="280" type="curve" smooth="yes"/>
      <point x="198" y="374"/>
      <point x="278" y="460"/>
      <point x="374" y="460" type="curve" smooth="yes"/>
      <point x="455" y="460"/>
      <point x="512" y="400"/>
      <point x="512" y="320" type="curve" smooth="yes"/>
      <point x="512" y="225"/>
      <point x="432" y="139"/>
    </contour>
  </outline>
</glyph>
<glyph name="b" format="2">
  <advance width="740"/>
  <unicode hex="0062"/>
  <anchor x="303" y="0" name="bottom"/>
  <anchor x="528" y="914" name="top"/>
  <outline>
    <contour>
      <point x="353" y="-14" type="curve" smooth="yes"/>
      <point x="534" y="-14"/>
      <point x="704" y="152"/>
      <point x="704" y="344" type="curve" smooth="yes"/>
      <point x="704" y="497"/>
      <point x="595" y="614"/>
      <point x="452" y="614" type="curve" smooth="yes"/>
      <point x="355" y="614"/>
      <point x="276" y="561"/>
      <point x="222" y="490" type="curve"/>
      <point x="278" y="450" type="line"/>
      <point x="405" y="960" type="line"/>
      <point x="231" y="960" type="line"/>
      <point x="-9" y="0" type="line"/>
      <point x="141" y="0" type="line"/>
      <point x="180" y="150" type="line"/>
      <point x="121" y="116" type="line"/>
      <point x="164" y="36"/>
      <point x="253" y="-14"/>
    </contour>
    <contour>
      <point x="366" y="140" type="curve" smooth="yes"/>
      <point x="285" y="140"/>
      <point x="228" y="200"/>
      <point x="228" y="280" type="curve" smooth="yes"/>
      <point x="228" y="375"/>
      <point x="308" y="461"/>
      <point x="404" y="461" type="curve" smooth="yes"/>
      <point x="485" y="461"/>
      <point x="542" y="399"/>
      <point x="542" y="320" type="curve" smooth="yes"/>
      <point x="542" y="226"/>
      <point x="462" y="140"/>
    </contour>
  </outline>
</glyph>
<glyph name="f" format="2">
  <advance width="450"/>
  <unicode hex="0066"/>
  <anchor x="100" y="0" name="bottom"/>
  <anchor x="481" y="960" name="top"/>
  <outline>
    <contour>
      <point x="58" y="0" type="line"/>
      <point x="232" y="0" type="line"/>
      <point x="370" y="549" type="line"/>
      <point x="367" y="549" type="line"/>
      <point x="419" y="755" type="line" smooth="yes"/>
      <point x="435" y="818"/>
      <point x="466" y="836"/>
      <point x="495" y="836" type="curve" smooth="yes"/>
      <point x="528" y="836"/>
      <point x="550" y="820"/>
      <point x="566" y="790" type="curve"/>
      <point x="634" y="925" type="line"/>
      <point x="597" y="959"/>
      <point x="535" y="972"/>
      <point x="489" y="972" type="curve" smooth="yes"/>
      <point x="381" y="972"/>
      <point x="288" y="908"/>
      <point x="254" y="771" type="curve" smooth="yes"/>
      <point x="199" y="550" type="line"/>
      <point x="196" y="550" type="line"/>
    </contour>
    <contour>
      <point x="70" y="462" type="line"/>
      <point x="460" y="462" type="line"/>
      <point x="494" y="600" type="line"/>
      <point x="104" y="600" type="line"/>
    </contour>
  </outline>
</glyph>
<glyph name="g" format="2">
  <advance width="740"/>
  <unicode hex="0067"/>
  <anchor x="217" y="-360" name="bottom"/>
  <anchor x="597" y="300" name="center"/>
  <anchor x="453" y="600" name="top"/>
  <outline>
    <contour>
      <point x="170" y="-313" type="curve" smooth="yes"/>
      <point x="351" y="-336"/>
      <point x="539" y="-242"/>
      <point x="587" y="-48" type="curve" smooth="yes"/>
      <point x="748" y="600" type="line"/>
      <point x="598" y="600" type="line"/>
      <point x="560" y="450" type="line"/>
      <point x="619" y="484" type="line"/>
      <point x="576" y="564"/>
      <point x="487" y="614"/>
      <point x="387" y="614" type="curve" smooth="yes"/>
      <point x="206" y="614"/>
      <point x="36" y="448"/>
      <point x="36" y="256" type="curve" smooth="yes"/>
      <point x="36" y="103"/>
      <point x="145" y="-14"/>
      <point x="288" y="-14" type="curve" smooth="yes"/>
      <point x="385" y="-14"/>
      <point x="464" y="39"/>
      <point x="518" y="110" type="curve"/>
      <point x="485" y="150" type="line"/>
      <point x="445" y="-5" type="line" smooth="yes"/>
      <point x="417" y="-113"/>
      <point x="328" y="-180"/>
      <point x="207" y="-166" type="curve" smooth="yes"/>
      <point x="121" y="-155"/>
      <point x="61" y="-106"/>
      <point x="32" y="-45" type="curve"/>
      <point x="-51" y="-209" type="line"/>
      <point x="-2" y="-263"/>
      <point x="77" y="-302"/>
    </contour>
    <contour>
      <point x="336" y="139" type="curve" smooth="yes"/>
      <point x="255" y="139"/>
      <point x="198" y="201"/>
      <point x="198" y="280" type="curve" smooth="yes"/>
      <point x="198" y="374"/>
      <point x="278" y="460"/>
      <point x="374" y="460" type="curve" smooth="yes"/>
      <point x="455" y="460"/>
      <point x="512" y="400"/>
      <point x="512" y="320" type="curve" smooth="yes"/>
      <point x="512" y="225"/>
      <point x="432" y="139"/>
    </contour>
  </outline>
</glyph>
<glyph name="l" format="2">
  <advance width="310"/>
  <unicode hex="006C"/>
  <anchor x="80" y="0" name="bottom"/>
  <anchor x="198" y="480" name="center"/>
  <anchor x="393" y="420" name="periodcentered"/>
  <anchor x="320" y="960" name="top"/>
  <anchor x="403" y="960" name="topright"/>
  <outline>
    <contour>
      <point x="-7" y="0" type="line"/>
      <point x="167" y="0" type="line"/>
      <point x="407" y="960" type="line"/>
      <point x="233" y="960" type="line"/>
    </contour>
  </outline>
</glyph>
<glyph name="m" format="2">
  <advance width="1080"/>
  <unicode hex="006D"/>
  <anchor x="566" y="0" name="bottom"/>
  <anchor x="566" y="600" name="top"/>
  <outline>
    <contour>
      <point x="384" y="0" type="line"/>
      <point x="558" y="0" type="line"/>
      <point x="646" y="348" type="line" smooth="yes"/>
      <point x="681" y="485"/>
      <point x="622" y="620"/>
      <point x="463" y="620" type="curve" smooth="yes"/>
      <point x="348" y="620"/>
      <point x="236" y="540"/>
      <point x="195" y="372" type="curve"/>
      <point x="254" y="356" type="line"/>
      <point x="274" y="439"/>
      <point x="330" y="476"/>
      <point x="388" y="476" type="curve" smooth="yes"/>
      <point x="461" y="476"/>
      <point x="490" y="415"/>
      <point x="472" y="346" type="curve" smooth="yes"/>
    </contour>
    <contour>
      <point x="-9" y="0" type="line"/>
      <point x="165" y="0" type="line"/>
      <point x="272" y="422" type="line"/>
      <point x="261" y="452" type="line"/>
      <point x="297" y="600" type="line"/>
      <point x="141" y="600" type="line"/>
    </contour>
    <contour>
      <point x="777" y="0" type="line"/>
      <point x="951" y="0" type="line"/>
      <point x="1039" y="348" type="line" smooth="yes"/>
      <point x="1073" y="485"/>
      <point x="1015" y="620"/>
      <point x="845" y="620" type="curve" smooth="yes"/>
      <point x="722" y="620"/>
      <point x="602" y="540"/>
      <point x="558" y="372" type="curve"/>
      <point x="647" y="356" type="line"/>
      <point x="667" y="439"/>
      <point x="723" y="476"/>
      <point x="781" y="476" type="curve" smooth="yes"/>
      <point x="854" y="476"/>
      <point x="883" y="415"/>
      <point x="865" y="346" type="curve" smooth="yes"/>
    </contour>
  </outline>
</glyph>
<glyph name="r" format="2">
  <advance width="460"/>
  <unicode hex="0072"/>
  <anchor x="75" y="0" name="bottom"/>
  <anchor x="325" y="600" name="top"/>
  <outline>
    <contour>
      <point x="-9" y="0" type="line"/>
      <point x="165" y="0" type="line"/>
      <point x="275" y="438" type="line"/>
      <point x="263" y="461" type="line"/>
      <point x="297" y="600" type="line"/>
      <point x="141" y="600" type="line"/>
    </contour>
    <contour>
      <point x="158" y="271" type="curve"/>
      <point x="234" y="271" type="line"/>
      <point x="264" y="391"/>
      <point x="347" y="458"/>
      <point x="445" y="458" type="curve" smooth="yes"/>
      <point x="460" y="458"/>
      <point x="475" y="456"/>
      <point x="487" y="452" type="curve"/>
      <point x="487" y="606" type="line"/>
      <point x="333" y="606"/>
      <point x="209" y="480"/>
    </contour>
  </outline>
</glyph>
<glyph name="y" format="2">
  <advance width="690"/>
  <unicode hex="0079"/>
  <anchor x="388" y="0" name="bottom"/>
  <anchor x="422" y="600" name="top"/>
  <outline>
    <contour>
      <point x="-108" y="-300" type="line"/>
      <point x="91" y="-300" type="line"/>
      <point x="759" y="600" type="line"/>
      <point x="562" y="600" type="line"/>
      <point x="400" y="380" type="line" smooth="yes"/>
      <point x="329" y="285"/>
      <point x="305" y="238"/>
      <point x="257" y="149" type="curve"/>
      <point x="336" y="148" type="line"/>
      <point x="332" y="238"/>
      <point x="335" y="284"/>
      <point x="313" y="380" type="curve" smooth="yes"/>
      <point x="261" y="600" type="line"/>
      <point x="81" y="600" type="line"/>
      <point x="200" y="114" type="line"/>
    </contour>
  </outline>
</glyph>
<glyph name="z" format="2">
  <advance width="530"/>
  <unicode hex="007A"/>
  <anchor x="182" y="0" name="bottom"/>
  <anchor x="264" y="300" name="center"/>
  <anchor x="347" y="600" name="top"/>
  <outline>
    <contour>
      <point x="179" y="76" type="line"/>
      <point x="139" y="144" type="line"/>
      <point x="451" y="144" type="line"/>
      <point x="415" y="0" type="line"/>
      <point x="-53" y="0" type="line"/>
      <point x="352" y="524" type="line"/>
      <point x="392" y="456" type="line"/>
      <point x="82" y="456" type="line"/>
      <point x="118" y="600" type="line"/>
      <point x="584" y="600" type="line"/>
    </contour>
  </outline>
</glyph>
<glyph name="braceleft" format="2">
  <advance width="480"/>
  <unicode hex="007B"/>
  <outline>
    <contour>
      <point x="277" y="-186" type="curve"/>
      <point x="342" y="-60" type="line"/>
      <point x="266" y="-50"/>
      <point x="197" y="-23"/>
      <point x="223" y="83" type="curve" smooth="yes"/>
      <point x="236" y="135"/>
      <point x="270" y="197"/>
      <point x="284" y="253" type="curve" smooth="yes"/>
      <point x="318" y="389"/>
      <point x="221" y="431"/>
      <point x="124" y="443" type="curve"/>
      <point x="112" y="395" type="line"/>
      <point x="209" y="383"/>
      <point x="320" y="399"/>
      <point x="353" y="535" type="curve" smooth="yes"/>
      <point x="367" y="591"/>
      <point x="366" y="657"/>
      <point x="378" y="710" type="curve" smooth="yes"/>
      <point x="405" y="816"/>
      <point x="483" y="834"/>
      <point x="559" y="834" type="curve"/>
      <point x="559" y="966" type="line"/>
      <point x="424" y="966"/>
      <point x="275" y="908"/>
      <point x="235" y="745" type="curve" smooth="yes"/>
      <point x="220" y="684"/>
      <point x="223" y="622"/>
      <point x="210" y="568" type="curve" smooth="yes"/>
      <point x="188" y="482"/>
      <point x="135" y="453"/>
      <point x="56" y="427" type="curve"/>
      <point x="118" y="382"/>
      <point x="154" y="342"/>
      <point x="132" y="257" type="curve" smooth="yes"/>
      <point x="119" y="203"/>
      <point x="86" y="145"/>
      <point x="71" y="85" type="curve" smooth="yes"/>
      <point x="31" y="-79"/>
      <point x="142" y="-169"/>
    </contour>
  </outline>
</glyph>
<glyph name="asciitilde" format="2">
  <advance width="750"/>
  <unicode hex="007E"/>
  <outline>
    <contour>
      <point x="111" y="336" type="line"/>
      <point x="152" y="396"/>
      <point x="191" y="426"/>
      <point x="251" y="426" type="curve" smooth="yes"/>
      <point x="353" y="426"/>
      <point x="428" y="336"/>
      <point x="551" y="336" type="curve" smooth="yes"/>
      <point x="628" y="336"/>
      <point x="699" y="372"/>
      <point x="754" y="435" type="curve"/>
      <point x="714" y="563" type="line"/>
      <point x="675" y="503"/>
      <point x="632" y="474"/>
      <point x="577" y="474" type="curve" smooth="yes"/>
      <point x="481" y="474"/>
      <point x="413" y="564"/>
      <point x="277" y="564" type="curve" smooth="yes"/>
      <point x="194" y="564"/>
      <point x="128" y="530"/>
      <point x="71" y="464" type="curve"/>
    </contour>
  </outline>
</glyph>
<glyph name="cent" format="2">
  <advance width="750"/>
  <unicode hex="00A2"/>
  <outline>
    <contour>
      <point x="427" y="130" type="curve" smooth="yes"/>
      <point x="503" y="130"/>
      <point x="574" y="151"/>
      <point x="625" y="192" type="curve"/>
      <point x="625" y="390" type="line"/>
      <point x="599" y="344"/>
      <point x="534" y="286"/>
      <point x="445" y="286" type="curve" smooth="yes"/>
      <point x="357" y="286"/>
      <point x="299" y="347"/>
      <point x="299" y="428" type="curve" smooth="yes"/>
      <point x="299" y="524"/>
      <point x="380" y="611"/>
      <point x="483" y="611" type="curve" smooth="yes"/>
      <point x="551" y="611"/>
      <point x="599" y="574"/>
      <point x="618" y="521" type="curve"/>
      <point x="703" y="694" type="line"/>
      <point x="652" y="739"/>
      <point x="584" y="766"/>
      <point x="502" y="766" type="curve" smooth="yes"/>
      <point x="304" y="766"/>
      <point x="134" y="599"/>
      <point x="134" y="412" type="curve" smooth="yes"/>
      <point x="134" y="247"/>
      <point x="264" y="130"/>
    </contour>
    <contour>
      <point x="292" y="0" type="line"/>
      <point x="400" y="0" type="line"/>
      <point x="615" y="870" type="line"/>
      <point x="507" y="870" type="line"/>
    </contour>
  </outline>
</glyph>
<glyph name="sterling" format="2">
  <advance width="750"/>
  <unicode hex="00A3"/>
  <outline>
    <contour>
      <point x="54" y="0" type="curve"/>
      <point x="605" y="0" type="line"/>
      <point x="643" y="156" type="line"/>
      <point x="245" y="156" type="line"/>
      <point x="154" y="59" type="line"/>
      <point x="260" y="81"/>
      <point x="349" y="110"/>
      <point x="379" y="232" type="curve" smooth="yes"/>
      <point x="403" y="330"/>
      <point x="396" y="499"/>
      <point x="421" y="600" type="curve" smooth="yes"/>
      <point x="445" y="700"/>
      <point x="504" y="764"/>
      <point x="580" y="764" type="curve" smooth="yes"/>
      <point x="658" y="764"/>
      <point x="706" y="704"/>
      <point x="728" y="643" type="curve"/>
      <point x="815" y="811" type="line"/>
      <point x="756" y="889"/>
      <point x="669" y="920"/>
      <point x="583" y="920" type="curve" smooth="yes"/>
      <point x="422" y="920"/>
      <point x="301" y="806"/>
      <point x="259" y="635" type="curve" smooth="yes"/>
      <point x="227" y="507"/>
      <point x="244" y="338"/>
      <point x="218" y="232" type="curve" smooth="yes"/>
      <point x="196" y="144"/>
      <point x="152" y="77"/>
    </contour>
    <contour>
      <point x="114" y="396" type="line"/>
      <point x="624" y="396" type="line"/>
      <point x="651" y="504" type="line"/>
      <point x="141" y="504" type="line"/>
    </contour>
  </outline>
</glyph>
<glyph name="registered" format="2">
  <advance width="600"/>
  <unicode hex="00AE"/>
  <outline>
    <contour>
      <point x="359" y="394" type="curve" smooth="yes"/>
      <point x="517" y="394"/>
      <point x="661" y="535"/>
      <point x="661" y="692" type="curve" smooth="yes"/>
      <point x="661" y="824"/>
      <point x="559" y="926"/>
      <point x="422" y="926" type="curve" smooth="yes"/>
      <point x="261" y="926"/>
      <point x="119" y="786"/>
      <point x="119" y="630" type="curve" smooth="yes"/>
      <point x="119" y="492"/>
      <point x="228" y="394"/>
    </contour>
    <contour>
      <point x="368" y="472" type="curve" smooth="yes"/>
      <point x="271" y="472"/>
      <point x="202" y="543"/>
      <point x="202" y="637" type="curve" smooth="yes"/>
      <point x="202" y="748"/>
      <point x="298" y="849"/>
      <point x="412" y="849" type="curve" smooth="yes"/>
      <point x="509" y="849"/>
      <point x="578" y="776"/>
      <point x="578" y="683" type="curve" smooth="yes"/>
      <point x="578" y="573"/>
      <point x="482" y="472"/>
    </contour>
    <contour>
      <point x="265" y="546" type="line"/>
      <point x="337" y="546" type="line"/>
      <point x="397" y="786" type="line"/>
      <point x="324" y="786" type="line"/>
    </contour>
    <contour>
      <point x="403" y="546" type="line"/>
      <point x="478" y="546" type="line"/>
      <point x="438" y="662" type="line"/>
      <point x="365" y="662" type="line"/>
    </contour>
    <contour>
      <point x="317" y="606" type="line"/>
      <point x="402" y="606" type="line" smooth="yes"/>
      <point x="457" y="606"/>
      <point x="507" y="655"/>
      <point x="507" y="706" type="curve" smooth="yes"/>
      <point x="507" y="751"/>
      <point x="470" y="786"/>
      <point x="423" y="786" type="curve" smooth="yes"/>
      <point x="361" y="786" type="line"/>
      <point x="347" y="727" type="line"/>
      <point x="401" y="727" type="line" smooth="yes"/>
      <point x="421" y="727"/>
      <point x="434" y="717"/>
      <point x="434" y="700" type="curve" smooth="yes"/>
      <point x="434" y="680"/>
      <point x="416" y="663"/>
      <point x="393" y="663" type="curve" smooth="yes"/>
      <point x="331" y="663" type="line"/>
    </contour>
  </outline>
</glyph>
<glyph name="micro" format="2">
  <advance width="730"/>
  <unicode hex="00B5"/>
  <unicode hex="03BC"/>
  <outline>
    <contour>
      <point x="-84" y="-300" type="line"/>
      <point x="90" y="-300" type="line"/>
      <point x="184" y="75" type="line"/>
      <point x="165" y="50" type="line"/>
      <point x="189" y="4"/>
      <point x="232" y="-20"/>
      <point x="288" y="-20" type="curve" smooth="yes"/>
      <point x="363" y="-20"/>
      <point x="438" y="23"/>
      <point x="488" y="105" type="curve"/>
      <point x="445" y="100" type="line"/>
      <point x="458" y="28"/>
      <point x="517" y="-12"/>
      <point x="605" y="-12" type="curve"/>
      <point x="672" y="127" type="line"/>
      <point x="627" y="127"/>
      <point x="610" y="149"/>
      <point x="623" y="201" type="curve" smooth="yes"/>
      <point x="721" y="600" type="line"/>
      <point x="547" y="600" type="line"/>
      <point x="464" y="262" type="line" smooth="yes"/>
      <point x="444" y="180"/>
      <point x="377" y="136"/>
      <point x="317" y="136" type="curve" smooth="yes"/>
      <point x="243" y="136"/>
      <point x="215" y="197"/>
      <point x="232" y="264" type="curve" smooth="yes"/>
      <point x="315" y="600" type="line"/>
      <point x="141" y="600" type="line"/>
    </contour>
  </outline>
</glyph>
<glyph name="ordmasculine" format="2">
  <advance width="480"/>
  <unicode hex="00BA"/>
  <outline>
    <contour>
      <point x="293" y="402" type="curve" smooth="yes"/>
      <point x="413" y="402"/>
      <point x="521" y="505"/>
      <point x="521" y="620" type="curve" smooth="yes"/>
      <point x="521" y="721"/>
      <point x="441" y="798"/>
      <point x="338" y="798" type="curve" smooth="yes"/>
      <point x="217" y="798"/>
      <point x="109" y="695"/>
      <point x="109" y="579" type="curve" smooth="yes"/>
      <point x="109" y="479"/>
      <point x="189" y="402"/>
    </contour>
    <contour>
      <point x="306" y="519" type="curve" smooth="yes"/>
      <point x="264" y="519"/>
      <point x="232" y="551"/>
      <point x="232" y="592" type="curve" smooth="yes"/>
      <point x="232" y="638"/>
      <point x="276" y="681"/>
      <point x="324" y="681" type="curve" smooth="yes"/>
      <point x="366" y="681"/>
      <point x="398" y="650"/>
      <point x="398" y="608" type="curve" smooth="yes"/>
      <point x="398" y="562"/>
      <point x="354" y="519"/>
    </contour>
  </outline>
</glyph>
<glyph name="guillemetright" format="2">
  <advance width="630"/>
  <unicode hex="00BB"/>
  <outline>
    <contour>
      <point x="-39" y="61" type="line"/>
      <point x="133" y="61" type="line"/>
      <point x="340" y="286" type="line"/>
      <point x="231" y="541" type="line"/>
      <point x="79" y="541" type="line"/>
      <point x="182" y="301" type="line"/>
    </contour>
    <contour>
      <point x="252" y="60" type="line"/>
      <point x="424" y="60" type="line"/>
      <point x="610" y="262" type="line"/>
      <point x="491" y="541" type="line"/>
      <point x="339" y="541" type="line"/>
      <point x="452" y="277" type="line"/>
    </contour>
  </outline>
</glyph>
<glyph name="AE" format="2">
  <advance width="1040"/>
  <unicode hex="00C6"/>
  <anchor x="804" y="0" name="bottom"/>
  <anchor x="958" y="0" name="ogonek"/>
  <anchor x="716" y="900" name="top"/>
  <anchor x="232" y="720" name="top-vertical"/>
  <anchor x="494" y="900" name="topleft"/>
  <outline>
    <contour>
      <point x="-63" y="0" type="line"/>
      <point x="122" y="0" type="line"/>
      <point x="386" y="396" type="line" smooth="yes"/>
      <point x="425" y="456"/>
      <point x="467" y="517"/>
      <point x="510" y="597" type="curve"/>
      <point x="509" y="517"/>
      <point x="516" y="456"/>
      <point x="523" y="396" type="curve" smooth="yes"/>
      <point x="562" y="0" type="line"/>
      <point x="941" y="0" type="line"/>
      <point x="981" y="162" type="line"/>
      <point x="710" y="162" type="line"/>
      <point x="681" y="456" type="line"/>
      <point x="879" y="456" type="line"/>
      <point x="916" y="606" type="line"/>
      <point x="666" y="606" type="line"/>
      <point x="653" y="744" type="line"/>
      <point x="920" y="744" type="line"/>
      <point x="959" y="900" type="line"/>
      <point x="543" y="900" type="line"/>
    </contour>
    <contour>
      <point x="153" y="160" type="line"/>
      <point x="591" y="160" type="line"/>
      <point x="574" y="304" type="line"/>
      <point x="242" y="304" type="line"/>
    </contour>
  </outline>
</glyph>
<glyph name="germandbls" format="2">
  <advance width="720"/>
  <unicode hex="00DF"/>
  <outline>
    <contour>
      <point x="282" y="-17" type="line"/>
      <point x="505" y="-12"/>
      <point x="690" y="161"/>
      <point x="690" y="364" type="curve" smooth="yes"/>
      <point x="690" y="465"/>
      <point x="644" y="550"/>
      <point x="562" y="601" type="curve"/>
      <point x="556" y="541" type="line"/>
      <point x="647" y="587"/>
      <point x="703" y="673"/>
      <point x="703" y="765" type="curve" smooth="yes"/>
      <point x="703" y="887"/>
      <point x="602" y="977"/>
      <point x="466" y="977" type="curve" smooth="yes"/>
      <point x="327" y="977"/>
      <point x="213" y="884"/>
      <point x="177" y="742" type="curve" smooth="yes"/>
      <point x="-9" y="0" type="line"/>
      <point x="165" y="0" type="line"/>
      <point x="345" y="720" type="line" smooth="yes"/>
      <point x="360" y="782"/>
      <point x="402" y="822"/>
      <point x="454" y="822" type="curve" smooth="yes"/>
      <point x="505" y="822"/>
      <point x="541" y="787"/>
      <point x="541" y="736" type="curve" smooth="yes"/>
      <point x="541" y="667"/>
      <point x="475" y="600"/>
      <point x="366" y="558" type="curve"/>
      <point x="460" y="505"/>
      <point x="510" y="434"/>
      <point x="510" y="352" type="curve" smooth="yes"/>
      <point x="510" y="233"/>
      <point x="408" y="139"/>
      <point x="282" y="139" type="curve"/>
    </contour>
  </outline>
</glyph>
<glyph name="eth" format="2">
  <advance width="720"/>
  <unicode hex="00F0"/>
  <outline>
    <contour>
      <point x="329" y="-20" type="curve" smooth="yes"/>
      <point x="543" y="-20"/>
      <point x="690" y="178"/>
      <point x="690" y="375" type="curve" smooth="yes"/>
      <point x="690" y="433"/>
      <point x="677" y="498"/>
      <point x="651" y="567" type="curve" smooth="yes"/>
      <point x="622" y="644"/>
      <point x="546" y="812"/>
      <point x="463" y="962" type="curve"/>
      <point x="294" y="960" type="line"/>
      <point x="367" y="828"/>
      <point x="436" y="695"/>
      <point x="490" y="567" type="curve"/>
      <point x="513" y="580" type="line"/>
      <point x="467" y="607"/>
      <point x="417" y="614"/>
      <point x="379" y="614" type="curve" smooth="yes"/>
      <point x="200" y="614"/>
      <point x="37" y="449"/>
      <point x="37" y="264" type="curve" smooth="yes"/>
      <point x="37" y="104"/>
      <point x="160" y="-20"/>
    </contour>
    <contour>
      <point x="340" y="136" type="curve" smooth="yes"/>
      <point x="260" y="136"/>
      <point x="202" y="203"/>
      <point x="202" y="280" type="curve" smooth="yes"/>
      <point x="202" y="376"/>
      <point x="287" y="464"/>
      <point x="380" y="464" type="curve" smooth="yes"/>
      <point x="461" y="464"/>
      <point x="519" y="402"/>
      <point x="519" y="324" type="curve" smooth="yes"/>
      <point x="519" y="226"/>
      <point x="434" y="136"/>
    </contour>
    <contour>
      <point x="255" y="665" type="line"/>
      <point x="684" y="860" type="line"/>
      <point x="656" y="935" type="line"/>
      <point x="227" y="741" type="line"/>
    </contour>
  </outline>
</glyph>
<glyph name="kgreenlandic" format="2">
  <advance width="670"/>
  <unicode hex="0138"/>
  <anchor x="283" y="0" name="bottom"/>
  <anchor x="393" y="600" name="top"/>
  <outline>
    <contour>
      <point x="401" y="1" type="line"/>
      <point x="590" y="1" type="line"/>
      <point x="396" y="396" type="line"/>
      <point x="393" y="324" type="line"/>
      <point x="672" y="600" type="line"/>
      <point x="473" y="600" type="line"/>
      <point x="232" y="354" type="line"/>
    </contour>
    <contour>
      <point x="-9" y="0" type="line"/>
      <point x="165" y="0" type="line"/>
      <point x="313" y="600" type="line"/>
      <point x="139" y="600" type="line"/>
    </contour>
  </outline>
</glyph>
<glyph name="Uhorn" format="2">
  <advance width="940"/>
  <unicode hex="01AF"/>
  <anchor x="326" y="0" name="bottom"/>
  <anchor x="548" y="900" name="top"/>
  <outline>
    <contour>
      <point x="366" y="-20" type="curve" smooth="yes"/>
      <point x="546" y="-20"/>
      <point x="675" y="88"/>
      <point x="720" y="268" type="curve" smooth="yes"/>
      <point x="834" y="722" type="line"/>
      <point x="828" y="745" type="line"/>
      <point x="866" y="900" type="line"/>
      <point x="698" y="900" type="line"/>
      <point x="546" y="290" type="line" smooth="yes"/>
      <point x="525" y="207"/>
      <point x="465" y="153"/>
      <point x="385" y="153" type="curve" smooth="yes"/>
      <point x="294" y="153"/>
      <point x="240" y="225"/>
      <point x="266" y="331" type="curve" smooth="yes"/>
      <point x="408" y="900" type="line"/>
      <point x="222" y="900" type="line"/>
      <point x="83" y="345" type="line" smooth="yes"/>
      <point x="31" y="137"/>
      <point x="153" y="-20"/>
    </contour>
    <contour>
      <point x="863" y="680" type="curve" smooth="yes"/>
      <point x="980" y="680"/>
      <point x="1082" y="798"/>
      <point x="1082" y="914" type="curve" smooth="yes"/>
      <point x="1082" y="929"/>
      <point x="1080" y="944"/>
      <point x="1075" y="960" type="curve"/>
      <point x="925" y="960" type="line"/>
      <point x="930" y="945"/>
      <point x="932" y="929"/>
      <point x="932" y="915" type="curve" smooth="yes"/>
      <point x="932" y="863"/>
      <point x="908" y="794"/>
      <point x="847" y="794" type="curve" smooth="yes"/>
      <point x="822" y="794"/>
      <point x="802" y="805"/>
      <point x="794" y="828" type="curve"/>
      <point x="767" y="718" type="line"/>
      <point x="789" y="693"/>
      <point x="824" y="680"/>
    </contour>
  </outline>
</glyph>
<glyph name="Ezh" format="2">
  <advance width="660"/>
  <unicode hex="01B7"/>
  <anchor x="229" y="0" name="bottom"/>
  <anchor x="478" y="900" name="top"/>
  <outline>
    <contour>
      <point x="265" y="-20" type="curve" smooth="yes"/>
      <point x="454" y="-20"/>
      <point x="629" y="142"/>
      <point x="629" y="333" type="curve" smooth="yes"/>
      <point x="629" y="448"/>
      <point x="565" y="545"/>
      <point x="467" y="585" type="curve"/>
      <point x="468" y="541" type="line"/>
      <point x="751" y="900" type="line"/>
      <point x="223" y="900" type="line"/>
      <point x="185" y="744" type="line"/>
      <point x="507" y="744" type="line"/>
      <point x="475" y="780" type="line"/>
      <point x="211" y="445" type="line"/>
      <point x="243" y="457"/>
      <point x="271" y="463"/>
      <point x="300" y="463" type="curve" smooth="yes"/>
      <point x="401" y="463"/>
      <point x="458" y="397"/>
      <point x="458" y="320" type="curve" smooth="yes"/>
      <point x="458" y="230"/>
      <point x="379" y="142"/>
      <point x="280" y="142" type="curve" smooth="yes"/>
      <point x="177" y="142"/>
      <point x="118" y="237"/>
      <point x="122" y="334" type="curve"/>
      <point x="-14" y="165" type="line"/>
      <point x="33" y="46"/>
      <point x="144" y="-20"/>
    </contour>
  </outline>
</glyph>
<glyph name="jdotless" format="2">
  <advance width="310"/>
  <unicode hex="0237"/>
  <anchor x="11" y="-300" name="bottom"/>
  <anchor x="232" y="600" name="top"/>
  <outline>
    <contour>
      <point x="-114" y="-312" type="line"/>
      <point x="6" y="-312"/>
      <point x="111" y="-234"/>
      <point x="145" y="-99" type="curve" smooth="yes"/>
      <point x="320" y="600" type="line"/>
      <point x="146" y="600" type="line"/>
      <point x="-29" y="-99" type="line" smooth="yes"/>
      <point x="-42" y="-151"/>
      <point x="-70" y="-173"/>
      <point x="-114" y="-173" type="curve"/>
    </contour>
  </outline>
</glyph>
<glyph name="acutecomb" format="2">
  <unicode hex="0301"/>
  <anchor x="435" y="600" name="_top"/>
  <outline>
    <contour>
      <point x="374" y="678" type="line"/>
      <point x="523" y="678" type="line"/>
      <point x="717" y="882" type="line"/>
      <point x="516" y="882" type="line"/>
    </contour>
  </outline>
</glyph>
<glyph name="dieresiscomb" format="2">
  <unicode hex="0308"/>
  <anchor x="435" y="600" name="_top"/>
  <outline>
    <contour>
      <point x="337" y="690" type="curve" smooth="yes"/>
      <point x="391" y="690"/>
      <point x="438" y="737"/>
      <point x="438" y="791" type="curve" smooth="yes"/>
      <point x="438" y="835"/>
      <point x="404" y="870"/>
      <point x="359" y="870" type="curve" smooth="yes"/>
      <point x="305" y="870"/>
      <point x="258" y="823"/>
      <point x="258" y="769" type="curve" smooth="yes"/>
      <point x="258" y="723"/>
      <point x="294" y="690"/>
    </contour>
    <contour>
      <point x="601" y="690" type="curve" smooth="yes"/>
      <point x="655" y="690"/>
      <point x="702" y="737"/>
      <point x="702" y="791" type="curve" smooth="yes"/>
      <point x="702" y="835"/>
      <point x="668" y="870"/>
      <point x="623" y="870" type="curve" smooth="yes"/>
      <point x="569" y="870"/>
      <point x="522" y="823"/>
      <point x="522" y="769" type="curve" smooth="yes"/>
      <point x="522" y="723"/>
      <point x="558" y="690"/>
    </contour>
  </outline>
</glyph>
<glyph name="macronbelowcomb" format="2">
  <unicode hex="0331"/>
  <anchor x="285" y="0" name="_bottom"/>
  <outline>
    <contour>
      <point x="73" y="-240" type="line"/>
      <point x="379" y="-240" type="line"/>
      <point x="409" y="-120" type="line"/>
      <point x="103" y="-120" type="line"/>
    </contour>
  </outline>
</glyph>
<glyph name="slashlongcomb" format="2">
  <unicode hex="0338"/>
  <anchor x="277" y="300" name="_center"/>
  <outline>
    <contour>
      <point x="-8" y="5" type="line"/>
      <point x="616" y="519" type="line"/>
      <point x="557" y="594" type="line"/>
      <point x="-67" y="80" type="line"/>
    </contour>
  </outline>
</glyph>
<glyph name="quoteleft" format="2">
  <advance width="290"/>
  <unicode hex="2018"/>
  <outline>
    <contour>
      <point x="104" y="570" type="curve"/>
      <point x="272" y="570" type="line"/>
      <point x="307" y="711"/>
      <point x="375" y="818"/>
      <point x="453" y="900" type="curve"/>
      <point x="278" y="900" type="line"/>
      <point x="193" y="807"/>
      <point x="135" y="696"/>
    </contour>
  </outline>
</glyph>
<glyph name="minute" format="2">
  <advance width="290"/>
  <unicode hex="2032"/>
  <outline>
    <contour>
      <point x="96" y="540" type="line"/>
      <point x="186" y="540" type="line"/>
      <point x="428" y="900" type="line"/>
      <point x="218" y="900" type="line"/>
    </contour>
  </outline>
</glyph>
<glyph name="dek" format="2">
  <advance width="750"/>
  <unicode hex="218A"/>
  <outline>
    <contour>
      <point x="341" y="-15" type="curve" smooth="yes"/>
      <point x="517" y="-15"/>
      <point x="666" y="136"/>
      <point x="666" y="289" type="curve" smooth="yes"/>
      <point x="666" y="319"/>
      <point x="661" y="348"/>
      <point x="648" y="382" type="curve"/>
      <point x="462" y="382" type="line"/>
      <point x="486" y="349"/>
      <point x="498" y="318"/>
      <point x="498" y="285" type="curve" smooth="yes"/>
      <point x="498" y="209"/>
      <point x="435" y="145"/>
      <point x="360" y="145" type="curve" smooth="yes"/>
      <point x="298" y="145"/>
      <point x="253" y="192"/>
      <point x="253" y="251" type="curve" smooth="yes"/>
      <point x="253" y="299"/>
      <point x="281" y="334"/>
      <point x="319" y="374" type="curve" smooth="yes"/>
      <point x="812" y="900" type="line"/>
      <point x="222" y="900" type="line"/>
      <point x="182" y="738" type="line"/>
      <point x="505" y="738" type="line"/>
      <point x="490" y="774" type="line"/>
      <point x="203" y="479" type="line" smooth="yes"/>
      <point x="122" y="396"/>
      <point x="77" y="332"/>
      <point x="77" y="239" type="curve" smooth="yes"/>
      <point x="77" y="96"/>
      <point x="193" y="-15"/>
    </contour>
  </outline>
</glyph>
<glyph name="lessequal" format="2">
  <advance width="750"/>
  <unicode hex="2264"/>
  <outline>
    <contour>
      <point x="650" y="188" type="line"/>
      <point x="687" y="335" type="line"/>
      <point x="475" y="450" type="line" smooth="yes"/>
      <point x="443" y="468"/>
      <point x="404" y="485"/>
      <point x="367" y="501" type="curve"/>
      <point x="412" y="518"/>
      <point x="459" y="535"/>
      <point x="501" y="553" type="curve" smooth="yes"/>
      <point x="769" y="669" type="line"/>
      <point x="810" y="834" type="line"/>
      <point x="76" y="512" type="line"/>
    </contour>
    <contour>
      <point x="10" y="50" type="line"/>
      <point x="616" y="50" type="line"/>
      <point x="645" y="166" type="line"/>
      <point x="39" y="166" type="line"/>
    </contour>
  </outline>
</glyph>
<glyph name="greaterequal" format="2">
  <advance width="750"/>
  <unicode hex="2265"/>
  <outline>
    <contour>
      <point x="44" y="188" type="line"/>
      <point x="778" y="510" type="line"/>
      <point x="204" y="834" type="line"/>
      <point x="167" y="687" type="line"/>
      <point x="379" y="572" type="line" smooth="yes"/>
      <point x="411" y="554"/>
      <point x="450" y="537"/>
      <point x="487" y="521" type="curve"/>
      <point x="442" y="504"/>
      <point x="395" y="487"/>
      <point x="353" y="469" type="curve" smooth="yes"/>
      <point x="85" y="353" type="line"/>
    </contour>
    <contour>
      <point x="10" y="50" type="line"/>
      <point x="616" y="50" type="line"/>
      <point x="645" y="166" type="line"/>
      <point x="39" y="166" type="line"/>
    </contour>
  </outline>
</glyph>
<glyph name="leftanglebracket-math" format="2">
  <advance width="480"/>
  <unicode hex="27E8"/>
  <outline>
    <contour>
      <point x="161" y="-180" type="line"/>
      <point x="322" y="-180" type="line"/>
      <point x="205" y="368" type="line"/>
      <point x="622" y="960" type="line"/>
      <point x="441" y="960" type="line"/>
      <point x="40" y="390" type="line"/>
    </contour>
  </outline>
</glyph>
<glyph name="rightanglebracket-math" format="2">
  <advance width="480"/>
  <unicode hex="27E9"/>
  <outline>
    <contour>
      <point x="-98" y="-180" type="line"/>
      <point x="83" y="-180" type="line"/>
      <point x="484" y="390" type="line"/>
      <point x="363" y="960" type="line"/>
      <point x="202" y="960" type="line"/>
      <point x="319" y="412" type="line"/>
    </contour>
  </outline>
</glyph>
<glyph name="G.stroke" format="2">
  <advance width="920"/>
  <anchor x="455" y="0" name="bottom"/>
  <anchor x="813" y="372" name="center"/>
  <anchor x="678" y="900" name="top"/>
  <outline>
    <contour>
      <point x="513" y="-18" type="curve" smooth="yes"/>
      <point x="615" y="-18"/>
      <point x="713" y="14"/>
      <point x="797" y="71" type="curve"/>
      <point x="902" y="504" type="line"/>
      <point x="737" y="504" type="line"/>
      <point x="661" y="188" type="line"/>
      <point x="623" y="168"/>
      <point x="579" y="156"/>
      <point x="533" y="156" type="curve" smooth="yes"/>
      <point x="391" y="156"/>
      <point x="282" y="268"/>
      <point x="282" y="413" type="curve" smooth="yes"/>
      <point x="282" y="586"/>
      <point x="433" y="744"/>
      <point x="602" y="744" type="curve" smooth="yes"/>
      <point x="702" y="744"/>
      <point x="784" y="690"/>
      <point x="825" y="608" type="curve"/>
      <point x="918" y="801" type="line"/>
      <point x="843" y="874"/>
      <point x="739" y="918"/>
      <point x="621" y="918" type="curve" smooth="yes"/>
      <point x="342" y="918"/>
      <point x="92" y="670"/>
      <point x="92" y="396" type="curve" smooth="yes"/>
      <point x="92" y="163"/>
      <point x="274" y="-18"/>
    </contour>
  </outline>
</glyph>
<glyph name="bracketleft.titl" format="2">
  <advance width="480"/>
  <outline>
    <contour>
      <point x="10" y="-180" type="line"/>
      <point x="300" y="-180" type="line"/>
      <point x="317" y="-110" type="line"/>
      <point x="103" y="-110" type="line"/>
      <point x="354" y="890" type="line"/>
      <point x="568" y="890" type="line"/>
      <point x="585" y="960" type="line"/>
      <point x="295" y="960" type="line"/>
    </contour>
  </outline>
</glyph>
<glyph name="bracketright.titl" format="2">
  <advance width="480"/>
  <outline>
    <contour>
      <point x="-60" y="-180" type="line"/>
      <point x="230" y="-180" type="line"/>
      <point x="515" y="960" type="line"/>
      <point x="225" y="960" type="line"/>
      <point x="208" y="890" type="line"/>
      <point x="422" y="890" type="line"/>
      <point x="171" y="-110" type="line"/>
      <point x="-43" y="-110" type="line"/>
    </contour>
  </outline>
</glyph>
<glyph name="circumflexcomb_hookabovecomb" format="2">
  <anchor x="435" y="600" name="_top"/>
  <outline>
    <contour>
      <point x="236" y="678" type="line"/>
      <point x="404" y="678" type="line"/>
      <point x="432" y="702"/>
      <point x="454" y="725"/>
      <point x="481" y="754" type="curve"/>
      <point x="494" y="725"/>
      <point x="506" y="702"/>
      <point x="522" y="678" type="curve"/>
      <point x="674" y="678" type="line"/>
      <point x="514" y="921" type="line"/>
    </contour>
    <contour>
      <point x="650" y="807" type="curve"/>
      <point x="782" y="807" type="line"/>
      <point x="814" y="835"/>
      <point x="844" y="870"/>
      <point x="855" y="915" type="curve" smooth="yes"/>
      <point x="873" y="988"/>
      <point x="816" y="1030"/>
      <point x="732" y="1030" type="curve" smooth="yes"/>
      <point x="682" y="1030"/>
      <point x="630" y="1014"/>
      <point x="604" y="995" type="curve"/>
      <point x="608" y="897" type="line"/>
      <point x="626" y="913"/>
      <point x="653" y="928"/>
      <point x="675" y="928" type="curve" smooth="yes"/>
      <point x="705" y="928"/>
      <point x="719" y="911"/>
      <point x="713" y="887" type="curve" smooth="yes"/>
      <point x="708" y="866"/>
      <point x="687" y="840"/>
    </contour>
  </outline>
</glyph>
<glyph name="dek.numr" format="2">
  <advance width="480"/>
  <outline>
    <contour>
      <point x="302" y="402" type="curve" smooth="yes"/>
      <point x="415" y="402"/>
      <point x="502" y="493"/>
      <point x="502" y="590" type="curve" smooth="yes"/>
      <point x="502" y="605"/>
      <point x="500" y="617"/>
      <point x="497" y="630" type="curve"/>
      <point x="362" y="630" type="line"/>
      <point x="370" y="613"/>
      <point x="374" y="600"/>
      <point x="374" y="586" type="curve" smooth="yes"/>
      <point x="374" y="551"/>
      <point x="351" y="521"/>
      <point x="315" y="521" type="curve" smooth="yes"/>
      <point x="289" y="521"/>
      <point x="269" y="538"/>
      <point x="269" y="567" type="curve" smooth="yes"/>
      <point x="269" y="600"/>
      <point x="295" y="625"/>
      <point x="324" y="653" type="curve" smooth="yes"/>
      <point x="583" y="900" type="line"/>
      <point x="193" y="900" type="line"/>
      <point x="165" y="786" type="line"/>
      <point x="268" y="786" type="line" smooth="yes"/>
      <point x="302" y="786"/>
      <point x="336" y="788"/>
      <point x="359" y="789" type="curve"/>
      <point x="357" y="810" type="line"/>
      <point x="304" y="779"/>
      <point x="271" y="752"/>
      <point x="235" y="722" type="curve" smooth="yes"/>
      <point x="177" y="674"/>
      <point x="135" y="625"/>
      <point x="135" y="557" type="curve" smooth="yes"/>
      <point x="135" y="474"/>
      <point x="202" y="402"/>
    </contour>
  </outline>
</glyph>
<glyph name="dieresiscomb.Adieresis.case" format="2">
  <anchor x="420" y="900" name="_top"/>
  <anchor x="420" y="1071" name="top"/>
  <outline>
    <contour>
      <point x="588" y="906" type="curve" smooth="yes"/>
      <point x="646" y="906"/>
      <point x="696" y="956"/>
      <point x="696" y="1014" type="curve" smooth="yes"/>
      <point x="696" y="1061"/>
      <point x="660" y="1098"/>
      <point x="612" y="1098" type="curve" smooth="yes"/>
      <point x="554" y="1098"/>
      <point x="504" y="1048"/>
      <point x="504" y="990" type="curve" smooth="yes"/>
      <point x="504" y="941"/>
      <point x="542" y="906"/>
    </contour>
    <contour>
      <point x="228" y="906" type="curve" smooth="yes"/>
      <point x="286" y="906"/>
      <point x="336" y="956"/>
      <point x="336" y="1014" type="curve" smooth="yes"/>
      <point x="336" y="1061"/>
      <point x="300" y="1098"/>
      <point x="252" y="1098" type="curve" smooth="yes"/>
      <point x="194" y="1098"/>
      <point x="144" y="1048"/>
      <point x="144" y="990" type="curve" smooth="yes"/>
      <point x="144" y="941"/>
      <point x="182" y="906"/>
    </contour>
  </outline>
</glyph>
<glyph name="dieresiscomb.vertical" format="2">
  <anchor x="360" y="525" name="_top-vertical"/>
  <outline>
    <contour>
      <point x="379" y="561" type="curve" smooth="yes"/>
      <point x="429" y="561"/>
      <point x="473" y="605"/>
      <point x="473" y="655" type="curve" smooth="yes"/>
      <point x="473" y="696"/>
      <point x="441" y="729"/>
      <point x="399" y="729" type="curve" smooth="yes"/>
      <point x="349" y="729"/>
      <point x="305" y="685"/>
      <point x="305" y="635" type="curve" smooth="yes"/>
      <point x="305" y="592"/>
      <point x="339" y="561"/>
    </contour>
    <contour>
      <point x="321" y="321" type="curve" smooth="yes"/>
      <point x="371" y="321"/>
      <point x="415" y="365"/>
      <point x="415" y="415" type="curve" smooth="yes"/>
      <point x="415" y="456"/>
      <point x="383" y="489"/>
      <point x="341" y="489" type="curve" smooth="yes"/>
      <point x="291" y="489"/>
      <point x="247" y="445"/>
      <point x="247" y="395" type="curve" smooth="yes"/>
      <point x="247" y="352"/>
      <point x="281" y="321"/>
    </contour>
  </outline>
</glyph>
<glyph name="emdash.case" format="2">
  <advance width="1440"/>
  <outline>
    <contour>
      <point x="79" y="375" type="line"/>
      <point x="1399" y="375" type="line"/>
      <point x="1435" y="525" type="line"/>
      <point x="115" y="525" type="line"/>
    </contour>
  </outline>
</glyph>
<glyph name="emdash.titl.case" format="2">
  <advance width="1440"/>
  <outline>
    <contour>
      <point x="88" y="414" type="line"/>
      <point x="1408" y="414" type="line"/>
      <point x="1426" y="486" type="line"/>
      <point x="106" y="486" type="line"/>
    </contour>
  </outline>
</glyph>
<glyph name="emdash.titl" format="2">
  <advance width="1440"/>
  <outline>
    <contour>
      <point x="51" y="264" type="line"/>
      <point x="1371" y="264" type="line"/>
      <point x="1389" y="336" type="line"/>
      <point x="69" y="336" type="line"/>
    </contour>
  </outline>
</glyph>
<glyph name="f_f" format="2">
  <advance width="840"/>
  <outline>
    <contour>
      <point x="448" y="0" type="line"/>
      <point x="622" y="0" type="line"/>
      <point x="760" y="549" type="line"/>
      <point x="757" y="549" type="line"/>
      <point x="809" y="755" type="line" smooth="yes"/>
      <point x="825" y="818"/>
      <point x="856" y="836"/>
      <point x="885" y="836" type="curve" smooth="yes"/>
      <point x="918" y="836"/>
      <point x="940" y="820"/>
      <point x="956" y="790" type="curve"/>
      <point x="1024" y="925" type="line"/>
      <point x="987" y="959"/>
      <point x="925" y="972"/>
      <point x="879" y="972" type="curve" smooth="yes"/>
      <point x="771" y="972"/>
      <point x="678" y="908"/>
      <point x="644" y="771" type="curve" smooth="yes"/>
      <point x="589" y="550" type="line"/>
      <point x="586" y="550" type="line"/>
    </contour>
    <contour>
      <point x="58" y="0" type="line"/>
      <point x="232" y="0" type="line"/>
      <point x="370" y="549" type="line"/>
      <point x="367" y="549" type="line"/>
      <point x="419" y="755" type="line" smooth="yes"/>
      <point x="435" y="818"/>
      <point x="466" y="836"/>
      <point x="495" y="836" type="curve" smooth="yes"/>
      <point x="528" y="836"/>
      <point x="550" y="820"/>
      <point x="566" y="790" type="curve"/>
      <point x="634" y="925" type="line"/>
      <point x="597" y="959"/>
      <point x="535" y="972"/>
      <point x="489" y="972" type="curve" smooth="yes"/>
      <point x="381" y="972"/>
      <point x="288" y="908"/>
      <point x="254" y="771" type="curve" smooth="yes"/>
      <point x="199" y="550" type="line"/>
      <point x="196" y="550" type="line"/>
    </contour>
    <contour>
      <point x="70" y="462" type="line"/>
      <point x="850" y="462" type="line"/>
      <point x="884" y="600" type="line"/>
      <point x="104" y="600" type="line"/>
    </contour>
  </outline>
</glyph>
<glyph name="five.lf" format="2">
  <advance width="690"/>
  <outline>
    <contour>
      <point x="254" y="-20" type="curve" smooth="yes"/>
      <point x="450" y="-20"/>
      <point x="625" y="150"/>
      <point x="625" y="340" type="curve" smooth="yes"/>
      <point x="625" y="505"/>
      <point x="492" y="606"/>
      <point x="361" y="606" type="curve" smooth="yes"/>
      <point x="358" y="606"/>
      <point x="353" y="606"/>
      <point x="347" y="605" type="curve"/>
      <point x="381" y="744" type="line"/>
      <point x="673" y="744" type="line"/>
      <point x="711" y="900" type="line"/>
      <point x="273" y="900" type="line"/>
      <point x="153" y="413" type="line"/>
      <point x="195" y="443"/>
      <point x="245" y="462"/>
      <point x="296" y="462" type="curve" smooth="yes"/>
      <point x="386" y="462"/>
      <point x="453" y="406"/>
      <point x="453" y="326" type="curve" smooth="yes"/>
      <point x="453" y="231"/>
      <point x="368" y="142"/>
      <point x="270" y="142" type="curve" smooth="yes"/>
      <point x="175" y="142"/>
      <point x="112" y="225"/>
      <point x="112" y="318" type="curve"/>
      <point x="-20" y="152" type="line"/>
      <point x="28" y="40"/>
      <point x="139" y="-20"/>
    </contour>
  </outline>
</glyph>
<glyph name="four.numr" format="2">
  <advance width="480"/>
  <outline>
    <contour>
      <point x="302" y="420" type="line"/>
      <point x="422" y="420" type="line"/>
      <point x="447" y="522" type="line"/>
      <point x="505" y="522" type="line"/>
      <point x="531" y="629" type="line"/>
      <point x="473" y="629" type="line"/>
      <point x="502" y="744" type="line"/>
      <point x="372" y="681" type="line"/>
      <point x="358" y="623" type="line"/>
      <point x="194" y="623" type="line"/>
      <point x="243" y="578" type="line"/>
      <point x="495" y="900" type="line"/>
      <point x="347" y="900" type="line"/>
      <point x="55" y="522" type="line"/>
      <point x="327" y="522" type="line"/>
    </contour>
  </outline>
</glyph>
<glyph name="fraction.titl" format="2">
  <advance width="120"/>
  <outline>
    <contour>
      <point x="-372" y="0" type="line"/>
      <point x="-276" y="0" type="line"/>
      <point x="558" y="900" type="line"/>
      <point x="462" y="900" type="line"/>
    </contour>
  </outline>
</glyph>
<glyph name="hyphen.case" format="2">
  <advance width="380"/>
  <outline>
    <contour>
      <point x="49" y="378" type="line"/>
      <point x="369" y="378" type="line"/>
      <point x="405" y="522" type="line"/>
      <point x="85" y="522" type="line"/>
    </contour>
  </outline>
</glyph>
<glyph name="hyphen.titl" format="2">
  <advance width="360"/>
  <outline>
    <contour>
      <point x="21" y="265" type="line"/>
      <point x="321" y="265" type="line"/>
      <point x="339" y="335" type="line"/>
      <point x="39" y="335" type="line"/>
    </contour>
  </outline>
</glyph>
<glyph name="l.ss03" format="2">
  <advance width="330"/>
  <anchor x="75" y="0" name="bottom"/>
  <anchor x="193" y="480" name="center"/>
  <anchor x="394" y="420" name="periodcentered"/>
  <anchor x="315" y="960" name="top"/>
  <anchor x="402" y="960" name="topright"/>
  <outline>
    <contour>
      <point x="193" y="-12" type="curve"/>
      <point x="258" y="121" type="line"/>
      <point x="216" y="126"/>
      <point x="199" y="150"/>
      <point x="212" y="202" type="curve" smooth="yes"/>
      <point x="402" y="960" type="line"/>
      <point x="228" y="960" type="line"/>
      <point x="43" y="223" type="line" smooth="yes"/>
      <point x="10" y="90"/>
      <point x="74" y="2"/>
    </contour>
  </outline>
</glyph>
<glyph name="less.titl" format="2">
  <advance width="750"/>
  <outline>
    <contour>
      <point x="627" y="158" type="line"/>
      <point x="647" y="236" type="line"/>
      <point x="382" y="380" type="line" smooth="yes"/>
      <point x="341" y="403"/>
      <point x="291" y="424"/>
      <point x="247" y="443" type="curve"/>
      <point x="301" y="463"/>
      <point x="361" y="484"/>
      <point x="414" y="507" type="curve" smooth="yes"/>
      <point x="749" y="652" type="line"/>
      <point x="771" y="744" type="line"/>
      <point x="99" y="450" type="line"/>
    </contour>
  </outline>
</glyph>
<glyph name="multiply.titl" format="2">
  <advance width="750"/>
  <outline>
    <contour>
      <point x="155" y="208" type="line"/>
      <point x="715" y="641" type="line"/>
      <point x="669" y="702" type="line"/>
      <point x="109" y="269" type="line"/>
    </contour>
    <contour>
      <point x="548" y="208" type="line"/>
      <point x="612" y="260" type="line"/>
      <point x="276" y="702" type="line"/>
      <point x="212" y="651" type="line"/>
    </contour>
  </outline>
</glyph>
<glyph name="one.lf" format="2">
  <advance width="480"/>
  <outline>
    <contour>
      <point x="123" y="0" type="line"/>
      <point x="297" y="0" type="line"/>
      <point x="530" y="932" type="line"/>
      <point x="179" y="776" type="line"/>
      <point x="136" y="598" type="line"/>
      <point x="356" y="694" type="line"/>
      <point x="312" y="757" type="line"/>
    </contour>
  </outline>
</glyph>
<glyph name="seven.lf" format="2">
  <advance width="690"/>
  <outline>
    <contour>
      <point x="-40" y="0" type="line"/>
      <point x="168" y="0" type="line"/>
      <point x="816" y="900" type="line"/>
      <point x="183" y="900" type="line"/>
      <point x="143" y="738" type="line"/>
      <point x="606" y="738" type="line"/>
      <point x="559" y="825" type="line"/>
    </contour>
  </outline>
</glyph>
<glyph name="six.lf" format="2">
  <advance width="750"/>
  <outline>
    <contour>
      <point x="356" y="-20" type="curve" smooth="yes"/>
      <point x="557" y="-20"/>
      <point x="722" y="150"/>
      <point x="722" y="333" type="curve" smooth="yes"/>
      <point x="722" y="494"/>
      <point x="594" y="606"/>
      <point x="456" y="606" type="curve" smooth="yes"/>
      <point x="418" y="606"/>
      <point x="378" y="597"/>
      <point x="336" y="569" type="curve"/>
      <point x="387" y="541" type="line"/>
      <point x="691" y="900" type="line"/>
      <point x="489" y="900" type="line"/>
      <point x="148" y="486" type="line" smooth="yes"/>
      <point x="89" y="415"/>
      <point x="59" y="338"/>
      <point x="59" y="260" type="curve" smooth="yes"/>
      <point x="59" y="100"/>
      <point x="186" y="-20"/>
    </contour>
    <contour>
      <point x="372" y="142" type="curve" smooth="yes"/>
      <point x="287" y="142"/>
      <point x="231" y="207"/>
      <point x="231" y="281" type="curve" smooth="yes"/>
      <point x="231" y="371"/>
      <point x="312" y="456"/>
      <point x="410" y="456" type="curve" smooth="yes"/>
      <point x="495" y="456"/>
      <point x="551" y="394"/>
      <point x="551" y="319" type="curve" smooth="yes"/>
      <point x="551" y="229"/>
      <point x="469" y="142"/>
    </contour>
  </outline>
</glyph>
<glyph name="three.lf" format="2">
  <advance width="690"/>
  <outline>
    <contour>
      <point x="254" y="-20" type="curve" smooth="yes"/>
      <point x="443" y="-20"/>
      <point x="622" y="142"/>
      <point x="622" y="328" type="curve" smooth="yes"/>
      <point x="622" y="430"/>
      <point x="567" y="517"/>
      <point x="482" y="562" type="curve"/>
      <point x="749" y="900" type="line"/>
      <point x="227" y="900" type="line"/>
      <point x="189" y="744" type="line"/>
      <point x="505" y="744" type="line"/>
      <point x="483" y="790" type="line"/>
      <point x="211" y="441" type="line"/>
      <point x="244" y="453"/>
      <point x="274" y="458"/>
      <point x="304" y="458" type="curve" smooth="yes"/>
      <point x="401" y="458"/>
      <point x="451" y="398"/>
      <point x="451" y="322" type="curve" smooth="yes"/>
      <point x="451" y="226"/>
      <point x="369" y="142"/>
      <point x="270" y="142" type="curve" smooth="yes"/>
      <point x="175" y="142"/>
      <point x="112" y="225"/>
      <point x="112" y="318" type="curve"/>
      <point x="-20" y="152" type="line"/>
      <point x="28" y="40"/>
      <point x="139" y="-20"/>
    </contour>
  </outline>
</glyph>
<glyph name="three.numr" format="2">
  <advance width="480"/>
  <outline>
    <contour>
      <point x="269" y="402" type="curve" smooth="yes"/>
      <point x="378" y="402"/>
      <point x="484" y="491"/>
      <point x="484" y="601" type="curve" smooth="yes"/>
      <point x="484" y="661"/>
      <point x="452" y="712"/>
      <point x="392" y="741" type="curve"/>
      <point x="375" y="677" type="line"/>
      <point x="554" y="900" type="line"/>
      <point x="215" y="900" type="line"/>
      <point x="187" y="786" type="line"/>
      <point x="332" y="786" type="line"/>
      <point x="215" y="645" type="line"/>
      <point x="232" y="651"/>
      <point x="252" y="656"/>
      <point x="273" y="656" type="curve" smooth="yes"/>
      <point x="327" y="656"/>
      <point x="352" y="627"/>
      <point x="352" y="593" type="curve" smooth="yes"/>
      <point x="352" y="551"/>
      <point x="315" y="522"/>
      <point x="272" y="522" type="curve" smooth="yes"/>
      <point x="216" y="522"/>
      <point x="188" y="569"/>
      <point x="185" y="608" type="curve"/>
      <point x="92" y="499" type="line"/>
      <point x="126" y="435"/>
      <point x="203" y="402"/>
    </contour>
  </outline>
</glyph>
